<?xml version="1.0" standalone="no"?>
<!DOCTYPE svg PUBLIC "-//W3C//DTD SVG 20010904//EN"
 "http://www.w3.org/TR/2001/REC-SVG-20010904/DTD/svg10.dtd">
<svg version="1.0" xmlns="http://www.w3.org/2000/svg"
 width="260.000000pt" height="260.000000pt" viewBox="0 0 260.000000 260.000000"
 preserveAspectRatio="xMidYMid meet">
<metadata>
Created by potrace 1.11, written by Peter Selinger 2001-2013
</metadata>
<g transform="translate(0.000000,260.000000) scale(0.100000,-0.100000)"
fill="#000000" stroke="none">
<path d="M1750 2175 c-203 -45 -406 -214 -505 -420 -61 -126 -79 -217 -73
-369 9 -212 74 -355 232 -511 157 -155 272 -206 478 -213 149 -5 238 11 344
62 135 65 235 156 326 296 l48 75 0 323 c0 357 4 333 -70 442 -91 133 -243
250 -384 296 -101 33 -291 42 -396 19z m303 -478 c95 -56 151 -159 151 -277 0
-98 -28 -162 -99 -229 -193 -182 -491 -23 -473 253 8 118 75 218 178 266 65
30 179 24 243 -13z"/>
<path d="M580 2149 c-262 -43 -482 -248 -550 -514 -101 -396 91 -789 447 -912
73 -25 92 -27 291 -31 l212 -4 0 214 0 215 -155 11 c-177 12 -220 26 -277 90
-91 101 -91 303 0 404 58 64 103 79 279 91 l153 11 0 218 0 218 -172 -1 c-95
-1 -198 -5 -228 -10z"/>
<path d="M2020 265 l0 -155 30 0 c17 0 30 5 30 10 0 7 6 7 19 0 26 -13 87 -13
114 2 35 18 46 40 47 86 0 60 -41 102 -100 102 -23 0 -50 -5 -61 -10 -18 -10
-19 -7 -19 55 l0 65 -30 0 -30 0 0 -155z m170 -15 c11 -11 20 -29 20 -40 0
-28 -35 -60 -67 -60 -55 0 -83 61 -46 102 21 24 68 23 93 -2z"/>
<path d="M2500 354 c0 -59 -2 -65 -17 -58 -37 16 -103 16 -127 1 -53 -35 -59
-128 -9 -167 30 -23 111 -28 132 -8 11 10 14 10 18 1 3 -7 16 -13 29 -13 l24
0 0 155 0 155 -25 0 c-24 0 -25 -2 -25 -66z m-20 -104 c11 -11 20 -29 20 -40
0 -28 -35 -60 -67 -60 -55 0 -83 61 -46 102 21 24 68 23 93 -2z"/>
<path d="M1389 213 c36 -92 40 -98 69 -101 29 -3 31 -1 52 63 12 36 25 63 28
60 4 -3 16 -32 28 -63 18 -50 24 -57 51 -60 31 -3 27 -10 100 186 4 8 -5 12
-24 12 -28 0 -31 -4 -48 -60 -10 -34 -21 -63 -25 -65 -3 -2 -16 26 -29 61 -22
62 -24 65 -54 62 -28 -3 -32 -9 -53 -68 -17 -52 -23 -61 -29 -45 -5 11 -16 40
-25 65 -15 38 -22 45 -48 48 l-31 3 38 -98z"/>
<path d="M1791 296 c-66 -37 -67 -131 -1 -169 36 -22 118 -22 148 -1 23 16 23
16 4 30 -17 12 -24 11 -51 -2 -26 -13 -35 -13 -58 -2 -55 27 -40 38 52 38 l88
0 -6 38 c-9 53 -46 82 -105 82 -26 -1 -58 -7 -71 -14z m93 -26 c14 -5 26 -16
26 -25 0 -12 -12 -15 -55 -15 -59 0 -68 10 -33 34 26 19 29 19 62 6z"/>
</g>
</svg>
